<?xml version="1.0" encoding="UTF-8" standalone="no"?>
<!DOCTYPE svg PUBLIC "-//W3C//DTD SVG 1.1//EN"
 "http://www.w3.org/Graphics/SVG/1.1/DTD/svg11.dtd">
<!-- Generated by graphviz version 2.44.1 (20200629.0846)
 -->
<!-- Title: G Pages: 1 -->
<svg width="706pt" height="240pt"
 viewBox="0.00 0.00 706.20 240.20" xmlns="http://www.w3.org/2000/svg" xmlns:xlink="http://www.w3.org/1999/xlink">
<g id="graph0" class="graph" transform="scale(1 1) rotate(0) translate(21.6 218.6)">
<title>G</title>
<polygon fill="#111111" stroke="transparent" points="-21.6,21.6 -21.6,-218.6 684.6,-218.6 684.6,21.6 -21.6,21.6"/>
<!-- convert.js -->
<g id="node1" class="node">
<title>convert.js</title>
<path fill="none" stroke="#c6c5fe" d="M182.33,-176C182.33,-176 123.67,-176 123.67,-176 119.83,-176 116,-172.17 116,-168.33 116,-168.33 116,-160.67 116,-160.67 116,-156.83 119.83,-153 123.67,-153 123.67,-153 182.33,-153 182.33,-153 186.17,-153 190,-156.83 190,-160.67 190,-160.67 190,-168.33 190,-168.33 190,-172.17 186.17,-176 182.33,-176"/>
<text text-anchor="middle" x="153" y="-160.8" font-family="Arial" font-size="14.00" fill="#c6c5fe">convert.js</text>
</g>
<!-- get&#45;characters.js -->
<g id="node2" class="node">
<title>get&#45;characters.js</title>
<path fill="none" stroke="#c6c5fe" d="M352.33,-176C352.33,-176 251.67,-176 251.67,-176 247.83,-176 244,-172.17 244,-168.33 244,-168.33 244,-160.67 244,-160.67 244,-156.83 247.83,-153 251.67,-153 251.67,-153 352.33,-153 352.33,-153 356.17,-153 360,-156.83 360,-160.67 360,-160.67 360,-168.33 360,-168.33 360,-172.17 356.17,-176 352.33,-176"/>
<text text-anchor="middle" x="302" y="-160.8" font-family="Arial" font-size="14.00" fill="#c6c5fe">get&#45;characters.js</text>
</g>
<!-- convert.js&#45;&gt;get&#45;characters.js -->
<g id="edge1" class="edge">
<title>convert.js&#45;&gt;get&#45;characters.js</title>
<path fill="none" stroke="#757575" d="M190.34,-164.5C203.46,-164.5 218.73,-164.5 233.66,-164.5"/>
<polygon fill="#757575" stroke="#757575" points="233.91,-168 243.91,-164.5 233.91,-161 233.91,-168"/>
</g>
<!-- make&#45;string.js -->
<g id="node3" class="node">
<title>make&#45;string.js</title>
<path fill="none" stroke="#cfffac" d="M344.83,-135C344.83,-135 259.17,-135 259.17,-135 255.33,-135 251.5,-131.17 251.5,-127.33 251.5,-127.33 251.5,-119.67 251.5,-119.67 251.5,-115.83 255.33,-112 259.17,-112 259.17,-112 344.83,-112 344.83,-112 348.67,-112 352.5,-115.83 352.5,-119.67 352.5,-119.67 352.5,-127.33 352.5,-127.33 352.5,-131.17 348.67,-135 344.83,-135"/>
<text text-anchor="middle" x="302" y="-119.8" font-family="Arial" font-size="14.00" fill="#cfffac">make&#45;string.js</text>
</g>
<!-- convert.js&#45;&gt;make&#45;string.js -->
<g id="edge2" class="edge">
<title>convert.js&#45;&gt;make&#45;string.js</title>
<path fill="none" stroke="#757575" d="M190.34,-154.37C208.3,-149.35 230.29,-143.22 249.91,-137.75"/>
<polygon fill="#757575" stroke="#757575" points="250.94,-141.1 259.63,-135.04 249.06,-134.35 250.94,-141.1"/>
</g>
<!-- font.js -->
<g id="node5" class="node">
<title>font.js</title>
<path fill="none" stroke="#cfffac" d="M480.83,-84C480.83,-84 442.17,-84 442.17,-84 438.33,-84 434.5,-80.17 434.5,-76.33 434.5,-76.33 434.5,-68.67 434.5,-68.67 434.5,-64.83 438.33,-61 442.17,-61 442.17,-61 480.83,-61 480.83,-61 484.67,-61 488.5,-64.83 488.5,-68.67 488.5,-68.67 488.5,-76.33 488.5,-76.33 488.5,-80.17 484.67,-84 480.83,-84"/>
<text text-anchor="middle" x="461.5" y="-68.8" font-family="Arial" font-size="14.00" fill="#cfffac">font.js</text>
</g>
<!-- get&#45;characters.js&#45;&gt;font.js -->
<g id="edge3" class="edge">
<title>get&#45;characters.js&#45;&gt;font.js</title>
<path fill="none" stroke="#757575" d="M340.74,-152.97C347.3,-150.48 353.95,-147.65 360,-144.5 389.19,-129.32 419.47,-106.5 439.05,-90.63"/>
<polygon fill="#757575" stroke="#757575" points="441.51,-93.15 447.01,-84.09 437.06,-87.74 441.51,-93.15"/>
</g>
<!-- stretch&#45;character.js -->
<g id="node6" class="node">
<title>stretch&#45;character.js</title>
<path fill="none" stroke="#c6c5fe" d="M519.33,-176C519.33,-176 403.67,-176 403.67,-176 399.83,-176 396,-172.17 396,-168.33 396,-168.33 396,-160.67 396,-160.67 396,-156.83 399.83,-153 403.67,-153 403.67,-153 519.33,-153 519.33,-153 523.17,-153 527,-156.83 527,-160.67 527,-160.67 527,-168.33 527,-168.33 527,-172.17 523.17,-176 519.33,-176"/>
<text text-anchor="middle" x="461.5" y="-160.8" font-family="Arial" font-size="14.00" fill="#c6c5fe">stretch&#45;character.js</text>
</g>
<!-- get&#45;characters.js&#45;&gt;stretch&#45;character.js -->
<g id="edge4" class="edge">
<title>get&#45;characters.js&#45;&gt;stretch&#45;character.js</title>
<path fill="none" stroke="#757575" d="M360.31,-164.5C368.5,-164.5 377.02,-164.5 385.49,-164.5"/>
<polygon fill="#757575" stroke="#757575" points="385.77,-168 395.77,-164.5 385.77,-161 385.77,-168"/>
</g>
<!-- current&#45;time.js -->
<g id="node4" class="node">
<title>current&#45;time.js</title>
<path fill="none" stroke="#cfffac" d="M196.83,-135C196.83,-135 109.17,-135 109.17,-135 105.33,-135 101.5,-131.17 101.5,-127.33 101.5,-127.33 101.5,-119.67 101.5,-119.67 101.5,-115.83 105.33,-112 109.17,-112 109.17,-112 196.83,-112 196.83,-112 200.67,-112 204.5,-115.83 204.5,-119.67 204.5,-119.67 204.5,-127.33 204.5,-127.33 204.5,-131.17 200.67,-135 196.83,-135"/>
<text text-anchor="middle" x="153" y="-119.8" font-family="Arial" font-size="14.00" fill="#cfffac">current&#45;time.js</text>
</g>
<!-- make&#45;taller.js -->
<g id="node11" class="node">
<title>make&#45;taller.js</title>
<path fill="none" stroke="#cfffac" d="M653.83,-197C653.83,-197 572.17,-197 572.17,-197 568.33,-197 564.5,-193.17 564.5,-189.33 564.5,-189.33 564.5,-181.67 564.5,-181.67 564.5,-177.83 568.33,-174 572.17,-174 572.17,-174 653.83,-174 653.83,-174 657.67,-174 661.5,-177.83 661.5,-181.67 661.5,-181.67 661.5,-189.33 661.5,-189.33 661.5,-193.17 657.67,-197 653.83,-197"/>
<text text-anchor="middle" x="613" y="-181.8" font-family="Arial" font-size="14.00" fill="#cfffac">make&#45;taller.js</text>
</g>
<!-- stretch&#45;character.js&#45;&gt;make&#45;taller.js -->
<g id="edge10" class="edge">
<title>stretch&#45;character.js&#45;&gt;make&#45;taller.js</title>
<path fill="none" stroke="#757575" d="M527.2,-173.59C536.17,-174.85 545.32,-176.13 554.15,-177.37"/>
<polygon fill="#757575" stroke="#757575" points="553.94,-180.88 564.33,-178.8 554.91,-173.95 553.94,-180.88"/>
</g>
<!-- make&#45;wider.js -->
<g id="node12" class="node">
<title>make&#45;wider.js</title>
<path fill="none" stroke="#cfffac" d="M655.33,-156C655.33,-156 570.67,-156 570.67,-156 566.83,-156 563,-152.17 563,-148.33 563,-148.33 563,-140.67 563,-140.67 563,-136.83 566.83,-133 570.67,-133 570.67,-133 655.33,-133 655.33,-133 659.17,-133 663,-136.83 663,-140.67 663,-140.67 663,-148.33 663,-148.33 663,-152.17 659.17,-156 655.33,-156"/>
<text text-anchor="middle" x="613" y="-140.8" font-family="Arial" font-size="14.00" fill="#cfffac">make&#45;wider.js</text>
</g>
<!-- stretch&#45;character.js&#45;&gt;make&#45;wider.js -->
<g id="edge11" class="edge">
<title>stretch&#45;character.js&#45;&gt;make&#45;wider.js</title>
<path fill="none" stroke="#757575" d="M527.2,-155.84C535.73,-154.7 544.44,-153.54 552.86,-152.41"/>
<polygon fill="#757575" stroke="#757575" points="553.53,-155.85 562.98,-151.06 552.6,-148.92 553.53,-155.85"/>
</g>
<!-- index.js -->
<g id="node7" class="node">
<title>index.js</title>
<path fill="none" stroke="#c6c5fe" d="M54.33,-94C54.33,-94 7.67,-94 7.67,-94 3.83,-94 0,-90.17 0,-86.33 0,-86.33 0,-78.67 0,-78.67 0,-74.83 3.83,-71 7.67,-71 7.67,-71 54.33,-71 54.33,-71 58.17,-71 62,-74.83 62,-78.67 62,-78.67 62,-86.33 62,-86.33 62,-90.17 58.17,-94 54.33,-94"/>
<text text-anchor="middle" x="31" y="-78.8" font-family="Arial" font-size="14.00" fill="#c6c5fe">index.js</text>
</g>
<!-- index.js&#45;&gt;convert.js -->
<g id="edge5" class="edge">
<title>index.js&#45;&gt;convert.js</title>
<path fill="none" stroke="#757575" d="M41.65,-94.03C53.63,-107.71 75.28,-130.43 98,-144.5 100.76,-146.21 103.69,-147.81 106.71,-149.3"/>
<polygon fill="#757575" stroke="#757575" points="105.35,-152.52 115.9,-153.43 108.21,-146.14 105.35,-152.52"/>
</g>
<!-- index.js&#45;&gt;current&#45;time.js -->
<g id="edge6" class="edge">
<title>index.js&#45;&gt;current&#45;time.js</title>
<path fill="none" stroke="#757575" d="M62.28,-92.85C76.18,-97.59 92.92,-103.31 108.16,-108.52"/>
<polygon fill="#757575" stroke="#757575" points="107.32,-111.93 117.91,-111.85 109.58,-105.31 107.32,-111.93"/>
</g>
<!-- ticker&#45;tape.js -->
<g id="node8" class="node">
<title>ticker&#45;tape.js</title>
<path fill="none" stroke="#c6c5fe" d="M191.83,-94C191.83,-94 114.17,-94 114.17,-94 110.33,-94 106.5,-90.17 106.5,-86.33 106.5,-86.33 106.5,-78.67 106.5,-78.67 106.5,-74.83 110.33,-71 114.17,-71 114.17,-71 191.83,-71 191.83,-71 195.67,-71 199.5,-74.83 199.5,-78.67 199.5,-78.67 199.5,-86.33 199.5,-86.33 199.5,-90.17 195.67,-94 191.83,-94"/>
<text text-anchor="middle" x="153" y="-78.8" font-family="Arial" font-size="14.00" fill="#c6c5fe">ticker&#45;tape.js</text>
</g>
<!-- index.js&#45;&gt;ticker&#45;tape.js -->
<g id="edge7" class="edge">
<title>index.js&#45;&gt;ticker&#45;tape.js</title>
<path fill="none" stroke="#757575" d="M62.28,-82.5C72.59,-82.5 84.47,-82.5 96.14,-82.5"/>
<polygon fill="#757575" stroke="#757575" points="96.29,-86 106.29,-82.5 96.29,-79 96.29,-86"/>
</g>
<!-- time&#45;to&#45;string.js -->
<g id="node9" class="node">
<title>time&#45;to&#45;string.js</title>
<path fill="none" stroke="#c6c5fe" d="M200.33,-53C200.33,-53 105.67,-53 105.67,-53 101.83,-53 98,-49.17 98,-45.33 98,-45.33 98,-37.67 98,-37.67 98,-33.83 101.83,-30 105.67,-30 105.67,-30 200.33,-30 200.33,-30 204.17,-30 208,-33.83 208,-37.67 208,-37.67 208,-45.33 208,-45.33 208,-49.17 204.17,-53 200.33,-53"/>
<text text-anchor="middle" x="153" y="-37.8" font-family="Arial" font-size="14.00" fill="#c6c5fe">time&#45;to&#45;string.js</text>
</g>
<!-- index.js&#45;&gt;time&#45;to&#45;string.js -->
<g id="edge8" class="edge">
<title>index.js&#45;&gt;time&#45;to&#45;string.js</title>
<path fill="none" stroke="#757575" d="M62.28,-72.15C76.18,-67.41 92.92,-61.69 108.16,-56.48"/>
<polygon fill="#757575" stroke="#757575" points="109.58,-59.69 117.91,-53.15 107.32,-53.07 109.58,-59.69"/>
</g>
<!-- validate&#45;input.js -->
<g id="node10" class="node">
<title>validate&#45;input.js</title>
<path fill="none" stroke="#c6c5fe" d="M349.33,-23C349.33,-23 254.67,-23 254.67,-23 250.83,-23 247,-19.17 247,-15.33 247,-15.33 247,-7.67 247,-7.67 247,-3.83 250.83,0 254.67,0 254.67,0 349.33,0 349.33,0 353.17,0 357,-3.83 357,-7.67 357,-7.67 357,-15.33 357,-15.33 357,-19.17 353.17,-23 349.33,-23"/>
<text text-anchor="middle" x="302" y="-7.8" font-family="Arial" font-size="14.00" fill="#c6c5fe">validate&#45;input.js</text>
</g>
<!-- index.js&#45;&gt;validate&#45;input.js -->
<g id="edge9" class="edge">
<title>index.js&#45;&gt;validate&#45;input.js</title>
<path fill="none" stroke="#757575" d="M40.22,-70.76C51.36,-55.95 72.8,-31.13 98,-20.5 141.6,-2.11 195.24,-0.52 236.43,-3.17"/>
<polygon fill="#757575" stroke="#757575" points="236.39,-6.68 246.62,-3.93 236.91,0.3 236.39,-6.68"/>
</g>
<!-- string&#45;utils.js -->
<g id="node13" class="node">
<title>string&#45;utils.js</title>
<path fill="none" stroke="#cfffac" d="M340.33,-74C340.33,-74 263.67,-74 263.67,-74 259.83,-74 256,-70.17 256,-66.33 256,-66.33 256,-58.67 256,-58.67 256,-54.83 259.83,-51 263.67,-51 263.67,-51 340.33,-51 340.33,-51 344.17,-51 348,-54.83 348,-58.67 348,-58.67 348,-66.33 348,-66.33 348,-70.17 344.17,-74 340.33,-74"/>
<text text-anchor="middle" x="302" y="-58.8" font-family="Arial" font-size="14.00" fill="#cfffac">string&#45;utils.js</text>
</g>
<!-- ticker&#45;tape.js&#45;&gt;string&#45;utils.js -->
<g id="edge12" class="edge">
<title>ticker&#45;tape.js&#45;&gt;string&#45;utils.js</title>
<path fill="none" stroke="#757575" d="M199.71,-76.28C214.22,-74.31 230.44,-72.1 245.56,-70.04"/>
<polygon fill="#757575" stroke="#757575" points="246.39,-73.46 255.83,-68.65 245.45,-66.53 246.39,-73.46"/>
</g>
<!-- time&#45;to&#45;string.js&#45;&gt;string&#45;utils.js -->
<g id="edge13" class="edge">
<title>time&#45;to&#45;string.js&#45;&gt;string&#45;utils.js</title>
<path fill="none" stroke="#757575" d="M208.32,-49.26C220.46,-50.99 233.35,-52.84 245.54,-54.58"/>
<polygon fill="#757575" stroke="#757575" points="245.18,-58.06 255.57,-56.01 246.17,-51.13 245.18,-58.06"/>
</g>
<!-- validate&#45;input.js&#45;&gt;font.js -->
<g id="edge14" class="edge">
<title>validate&#45;input.js&#45;&gt;font.js</title>
<path fill="none" stroke="#757575" d="M333,-23.12C359.18,-33.26 397.23,-47.99 424.94,-58.73"/>
<polygon fill="#757575" stroke="#757575" points="423.69,-62 434.28,-62.34 426.22,-55.47 423.69,-62"/>
</g>
</g>
</svg>
